<?xml version="1.0" encoding="utf-8"?><!-- Uploaded to: SVG Repo, www.svgrepo.com, Generator: SVG Repo Mixer Tools -->
<svg version="1.1" id="Uploaded to svgrepo.com" xmlns="http://www.w3.org/2000/svg" xmlns:xlink="http://www.w3.org/1999/xlink" 
	 width="800px" height="800px" viewBox="0 0 32 32" xml:space="preserve">
<style type="text/css">
	.linesandangles_een{fill:#111918;}
</style>
<path class="linesandangles_een" d="M28,16.071c0-2.761-2.239-5-5-5c-0.915,0-1.827,0.269-2.694,0.672C20.722,10.862,21,9.932,21,9
	c0-2.761-2.239-5-5-5s-5,2.239-5,5c0,0.932,0.278,1.862,0.694,2.743C10.827,11.34,9.915,11.071,9,11.071c-2.761,0-5,2.239-5,5
	s2.239,5,5,5c0.887,0,1.771-0.254,2.615-0.637C11.245,21.263,11,22.13,11,23c0,2.761,2.239,5,5,5s5-2.239,5-5
	c0-0.211-0.021-0.422-0.047-0.633L24.586,26L26,24.586l-3.556-3.556c0.185,0.021,0.371,0.042,0.556,0.042
	C25.761,21.071,28,18.832,28,16.071z M26,16.071c0,1.654-1.346,3-3,3c-1.792,0-3.916-1.668-5.281-3c1.366-1.333,3.49-3,5.281-3
	C24.654,13.071,26,14.417,26,16.071z M16,6c1.654,0,3,1.346,3,3c0,1.792-1.668,3.916-3,5.281c-1.333-1.366-3-3.49-3-5.281
	C13,7.346,14.346,6,16,6z M6,16.071c0-1.654,1.346-3,3-3c1.792,0,3.916,1.668,5.281,3c-1.366,1.333-3.49,3-5.281,3
	C7.346,19.071,6,17.725,6,16.071z M16,26c-1.654,0-3-1.346-3-3c0-1.791,1.667-3.915,3-5.281c1.333,1.366,3,3.49,3,5.281
	C19,24.654,17.654,26,16,26z"/>
</svg>